<svg xmlns="http://www.w3.org/2000/svg" width="720" height="720" viewBox="0 0 720 720" version="1.1"><path d="M 116.384 253.412 C 105.450 256.065, 95.847 264.488, 91.936 274.853 C 90.223 279.396, 89.886 282.072, 90.213 288.541 C 90.875 301.629, 96.669 310.832, 108.174 317.070 L 114.500 320.500 145 320.500 L 175.500 320.500 181.826 317.070 C 193.270 310.866, 199.040 301.672, 199.758 288.500 C 200.111 282.028, 199.787 279.421, 198.064 274.853 C 194.070 264.267, 184.533 256.040, 173.147 253.360 C 165.683 251.604, 123.678 251.642, 116.384 253.412 M 207 286.500 L 207 321 214 321 L 221 321 221 293 L 221 265 243.435 265 C 255.774 265, 266.981 265.422, 268.339 265.939 C 275.518 268.668, 277.482 277.672, 272.077 283.077 L 269.154 286 247.994 286 C 236.313 286, 226.983 286.392, 227.167 286.875 C 227.350 287.356, 236.239 295.231, 246.919 304.375 L 266.339 321 276.169 321 C 281.576 321, 286 320.834, 286 320.630 C 286 320.427, 280.349 315.589, 273.443 309.880 L 260.887 299.500 267.441 298.833 C 274.700 298.094, 279.193 295.822, 283.824 290.547 C 287.830 285.985, 289.300 281.005, 288.813 273.651 C 288.156 263.745, 281.516 255.903, 271.409 253.096 C 268.997 252.427, 255.915 252.009, 237.250 252.006 L 207 252 207 286.500 M 333.093 254.750 C 331.476 256.262, 320.918 271.788, 309.630 289.250 L 289.106 321 297.462 321 L 305.818 321 322.855 294.406 L 339.893 267.812 344.276 274.656 C 353.660 289.307, 357 294.741, 357 295.358 C 357 295.711, 349.602 296, 340.559 296 C 331.516 296, 323.895 296.362, 323.621 296.804 C 323.348 297.245, 324.784 300.164, 326.812 303.290 L 330.500 308.973 348.608 308.987 L 366.716 309 370.419 315 L 374.123 321 382.061 321 C 386.428 321, 390 320.713, 390 320.362 C 390 318.835, 347.541 254.792, 345.652 253.469 C 342.161 251.024, 336.453 251.606, 333.093 254.750 M 409.033 253.601 C 398.522 256.426, 390.424 263.410, 385.765 273.670 C 382.386 281.109, 382.644 293.569, 386.334 301.190 C 389.877 308.508, 398.177 316.174, 405.541 318.929 C 410.584 320.816, 413.245 321, 435.550 321 L 460.025 321 463.512 315.548 C 465.431 312.549, 467 309.888, 467 309.634 C 467 309.380, 455.188 309.017, 440.750 308.827 C 416.721 308.512, 414.119 308.307, 410 306.408 C 395.742 299.835, 392.733 282.248, 403.993 271.295 C 409.668 265.774, 413.793 265, 437.537 265 L 458.717 265 462.358 259.515 C 464.361 256.499, 466 253.574, 466 253.015 C 466 251.302, 415.662 251.819, 409.033 253.601 M 473 284.311 C 473 315.446, 473.074 316.703, 475.039 318.811 C 477.055 320.976, 477.437 321, 509.397 321 L 541.717 321 545.358 315.515 C 547.361 312.499, 549 309.799, 549 309.515 C 549 309.232, 535.050 309, 518 309 L 487 309 487 280.500 L 487 252 480 252 L 473 252 473 284.311 M 572.024 253.603 C 561.495 256.432, 553.005 263.430, 548.638 272.878 C 546.931 276.572, 546.501 279.408, 546.501 287 C 546.500 295.927, 546.707 296.882, 549.934 302.834 C 553.532 309.470, 558.450 314.152, 566 318.129 C 570.350 320.421, 571.373 320.510, 596.633 320.810 L 622.766 321.119 626.322 315.310 L 629.877 309.500 603.189 308.987 C 574.188 308.430, 573.252 308.254, 566.661 302.136 C 564.134 299.790, 561 295.037, 561 293.550 C 561 293.247, 573.761 293, 589.358 293 L 617.717 293 621.358 287.515 C 623.361 284.499, 625 281.574, 625 281.015 C 625 280.349, 613.990 280, 593 280 C 575.400 280, 561 279.618, 561 279.150 C 561 276.949, 567.421 269.815, 571.237 267.777 C 575.259 265.629, 576.803 265.482, 598.517 265.186 L 621.534 264.871 625.267 259.106 C 627.320 255.935, 629 253.039, 629 252.670 C 629 252.302, 617.413 252.030, 603.250 252.066 C 583.903 252.115, 576.138 252.498, 572.024 253.603 M 119.994 265.902 C 108.804 269.450, 103.352 277.366, 104.183 288.859 C 104.891 298.636, 111.852 306.076, 122.116 308.022 C 128.796 309.289, 161.204 309.289, 167.884 308.022 C 174.123 306.839, 179.279 303.503, 182.844 298.344 C 185.146 295.012, 185.500 293.492, 185.500 286.927 C 185.500 280.355, 185.140 278.809, 182.772 275.232 C 181.272 272.965, 177.897 269.848, 175.272 268.305 L 170.500 265.500 146.500 265.304 C 133.300 265.196, 121.372 265.465, 119.994 265.902" stroke="none" fill="#ec1c24" fill-rule="evenodd"/><path d="M 90 363 L 90 366 360 366 L 630 366 630 363 L 630 360 360 360 L 90 360 90 363 M 527.401 403.905 C 517.056 408.604, 513.620 424.942, 521.169 433.539 C 523.696 436.418, 526.103 437.588, 535.595 440.551 C 547.945 444.406, 549.641 445.803, 548.467 451.151 C 546.568 459.796, 528 457.793, 528 448.944 C 528 447.233, 527.276 447, 521.955 447 L 515.909 447 516.590 450.750 C 517.693 456.828, 520.755 461.810, 525.195 464.749 C 528.969 467.247, 530.193 467.500, 538.495 467.500 C 546.517 467.500, 548.071 467.204, 551.160 465.090 C 558.976 459.740, 562.030 449.604, 558.561 440.521 C 556.326 434.669, 553.616 432.871, 541.233 429.024 C 535.595 427.272, 530.311 425.168, 529.491 424.348 C 526.133 420.990, 528.924 414.810, 534.421 413.430 C 539.750 412.093, 547 416.585, 547 421.223 C 547 422.715, 547.902 423, 552.630 423 L 558.260 423 557.751 418.482 C 557.062 412.373, 553.129 406.725, 547.750 404.121 C 542.136 401.404, 533.121 401.308, 527.401 403.905 M 90 434.874 L 90 467 102.250 466.994 C 115.994 466.988, 120.586 466.061, 124.918 462.416 C 132.138 456.340, 136.307 440.104, 134.173 426.374 C 132.604 416.279, 128.971 409.653, 123.130 406.230 C 118.998 403.809, 117.575 403.578, 104.330 403.179 L 90 402.748 90 434.874 M 179.673 403.720 C 178.945 404.898, 161 464.702, 161 465.949 C 161 466.565, 163.441 467, 166.889 467 L 172.778 467 174.547 460.466 L 176.315 453.931 185.826 454.216 L 195.336 454.500 196.919 460.500 L 198.503 466.500 204.752 466.798 C 208.188 466.961, 210.991 466.736, 210.981 466.298 C 210.970 465.859, 206.798 451.550, 201.709 434.500 L 192.456 403.500 186.315 403.205 C 182.938 403.042, 179.949 403.274, 179.673 403.720 M 229.686 403.647 C 229.309 404.025, 229 406.733, 229 409.667 L 229 415 237 415 L 245 415 245 441 L 245 467 251 467 L 257 467 257 441 L 257 415 265.050 415 L 273.100 415 272.800 409.250 L 272.500 403.500 251.436 403.231 C 239.851 403.083, 230.063 403.270, 229.686 403.647 M 307.109 412.750 C 304.692 420.667, 293.447 458.190, 291.362 465.300 C 290.887 466.918, 291.464 467.070, 297.090 466.800 L 303.346 466.500 305.002 460.500 L 306.658 454.500 316.212 454.215 L 325.766 453.930 326.438 456.715 C 326.808 458.247, 327.553 461.188, 328.094 463.250 L 329.077 467 335.039 467 C 339.477 467, 341 466.643, 341 465.602 C 341 464.834, 336.950 450.613, 332 434 C 327.050 417.387, 323 403.616, 323 403.398 C 323 403.179, 320.094 403, 316.543 403 L 310.086 403 307.109 412.750 M 370 434.983 L 370 467.210 385.750 466.855 C 400.207 466.529, 401.810 466.307, 405.281 464.149 C 414.600 458.355, 416.622 442.120, 408.919 434.925 C 406.580 432.739, 406.313 432.094, 407.551 431.619 C 412.162 429.849, 413.332 415.605, 409.310 410.209 C 405.075 404.526, 401.969 403.616, 385.297 403.168 L 370 402.757 370 434.983 M 458.991 405.202 C 457.530 408.529, 441 464.083, 441 465.667 C 441 466.630, 442.666 467, 447 467 C 450.684 467, 453 466.577, 453 465.904 C 453 465.301, 453.707 462.376, 454.571 459.404 L 456.142 454 465.500 454 L 474.858 454 476.429 459.404 C 477.293 462.376, 478 465.301, 478 465.904 C 478 466.587, 480.459 467, 484.519 467 C 490.784 467, 491.016 466.912, 490.461 464.750 C 490.143 463.512, 485.924 449.225, 481.084 433 L 472.285 403.500 466.143 403.202 C 460.553 402.931, 459.910 403.111, 458.991 405.202 M 590 435 L 590 467 610 467 L 630 467 630 461 L 630 455 615.500 455 L 601 455 601 447 L 601 439 614 439 L 627 439 627 433.500 L 627 428 614 428 L 601 428 601 421.500 L 601 415 615 415 L 629 415 629 409 L 629 403 609.500 403 L 590 403 590 435 M 101 434.891 L 101 455 107.050 455 C 114.929 455, 118.300 453.191, 120.491 447.788 C 124.370 438.223, 123.265 422.477, 118.394 417.900 C 116.314 415.946, 114.573 415.467, 108.437 415.157 L 101 414.781 101 434.891 M 381 421.397 L 381 428 389 428 C 397.795 428, 401 426.315, 401 421.691 C 401 416.765, 398.841 415.528, 389.581 415.147 L 381 414.795 381 421.397 M 315.040 424 C 314.374 426.475, 312.996 431.538, 311.978 435.250 L 310.127 442 316.064 442 C 319.329 442, 321.989 441.663, 321.975 441.250 C 321.961 440.837, 320.667 435.775, 319.101 430 L 316.252 419.500 315.040 424 M 462.692 430.292 C 461.192 435.907, 459.973 440.837, 459.983 441.250 C 460.014 442.613, 471 442.114, 470.999 440.750 C 470.999 439.585, 466.038 420.750, 465.612 420.292 C 465.505 420.178, 464.191 424.678, 462.692 430.292 M 182.672 430.906 C 181.202 436.385, 180 441.123, 180 441.434 C 180 441.745, 182.663 442, 185.918 442 L 191.835 442 189.261 432.250 C 187.845 426.887, 186.385 422.150, 186.015 421.722 C 185.645 421.293, 184.141 425.426, 182.672 430.906 M 381 446.897 L 381 455 389.045 455 C 396.254 455, 397.346 454.745, 399.545 452.545 C 402.525 449.566, 402.750 445.147, 400.088 441.861 C 398.399 439.774, 397.180 439.459, 389.588 439.147 L 381 438.795 381 446.897" stroke="none" fill="#040404" fill-rule="evenodd"/></svg>