<?xml version="1.0" encoding="UTF-8" standalone="no"?>
<!-- Created with Inkscape (http://www.inkscape.org/) -->

<svg
   version="1.1"
   id="svg2"
   width="257.33334"
   height="257.33334"
   viewBox="0 0 257.33334 257.33334"
   sodipodi:docname="Oracle.eps"
   xmlns:inkscape="http://www.inkscape.org/namespaces/inkscape"
   xmlns:sodipodi="http://sodipodi.sourceforge.net/DTD/sodipodi-0.dtd"
   xmlns="http://www.w3.org/2000/svg"
   xmlns:svg="http://www.w3.org/2000/svg">
  <defs
     id="defs6" />
  <sodipodi:namedview
     id="namedview4"
     pagecolor="#ffffff"
     bordercolor="#000000"
     borderopacity="0.25"
     inkscape:showpageshadow="2"
     inkscape:pageopacity="0.0"
     inkscape:pagecheckerboard="0"
     inkscape:deskcolor="#d1d1d1" />
  <g
     id="g8"
     inkscape:groupmode="layer"
     inkscape:label="ink_ext_XXXXXX"
     transform="matrix(1.3333333,0,0,-1.3333333,0,257.33333)">
    <g
       id="g10"
       transform="scale(0.1)">
      <path
         d="M 0,1927.56 H 1927.56 V 0 H 0 v 1927.56"
         style="fill:#ffffff;fill-opacity:1;fill-rule:evenodd;stroke:none"
         id="path12" />
      <path
         d="M 840.891,934.008 H 950.203 L 892.461,1027.07 786.453,858.848 738.137,858.809 867.18,1060.83 c 5.476,8.21 14.925,13.15 25.207,13.15 10.148,0 19.468,-4.79 24.968,-12.79 l 129.485,-202.381 -48.34,0.039 -22.672,37.605 H 865.051 Z M 1342.43,896.41 v 175.47 h -41 V 879.258 c 0,-5.332 2.17,-10.426 5.97,-14.227 4.02,-3.972 9.31,-6.183 15.02,-6.183 h 186.81 l 24.1,37.562 z m -677.754,31.41 c 39.769,0 72.023,32.262 72.023,72.032 0,39.778 -32.254,72.028 -72.023,72.028 H 485.398 V 858.848 h 40.946 v 175.482 h 135.511 c 19.09,0 34.473,-15.42 34.473,-34.478 0,-19.039 -15.383,-34.5 -34.473,-34.5 L 546.41,965.387 668.668,858.848 h 59.52 l -82.266,69.007 z M 233.273,858.848 c -58.816,0 -106.523,47.668 -106.523,106.504 0,58.838 47.707,106.528 106.523,106.528 h 123.829 c 58.82,0 106.507,-47.69 106.507,-106.528 0,-58.856 -47.687,-106.543 -106.507,-106.543 z m 121.067,37.539 c 38.101,0 68.957,30.867 68.957,68.965 0,38.098 -30.856,68.968 -68.957,68.968 l -118.32,0.01 c -38.086,0 -68.969,-30.88 -68.969,-68.978 0,-38.098 30.883,-68.965 68.969,-68.965 z m 777.97,-37.539 c -58.8,0 -106.53,47.668 -106.53,106.504 0,58.838 47.73,106.528 106.53,106.528 h 147.15 l -24.12,-37.56 -120.26,0.01 c -38.11,0 -68.99,-30.88 -68.99,-68.978 0,-38.098 30.88,-68.965 68.99,-68.965 h 147.7 l -24.07,-37.539 z m 501.13,37.539 c -31.53,0 -58.19,21.199 -66.33,50.117 h 175.11 l 24.12,37.559 -199.28,0.019 c 8.15,28.988 34.78,50.248 66.38,50.248 l 120.19,-0.01 24.16,37.56 h -147.16 c -58.79,0 -106.51,-47.69 -106.51,-106.528 0,-58.836 47.72,-106.504 106.51,-106.504 h 126.41 l 24.08,37.539 h -147.68"
         style="fill:#ed1c24;fill-opacity:1;fill-rule:nonzero;stroke:none"
         id="path14" />
      <path
         d="m 1799.73,1049.2 c 0,10.38 8.41,18.8 18.82,18.8 10.4,0 18.79,-8.42 18.79,-18.8 0,-10.43 -8.39,-18.86 -18.79,-18.86 -10.41,0 -18.82,8.43 -18.82,18.86 z m 18.82,-24.03 c 13.22,0 23.97,10.72 23.97,23.94 0,13.25 -10.75,23.95 -23.97,23.95 -13.21,0 -23.93,-10.7 -23.93,-23.95 0,-13.22 10.72,-23.94 23.93,-23.94 z m -2.26,38.16 c 3.69,0 5.21,-0.03 7.02,-0.72 4.72,-1.59 5.21,-5.93 5.21,-7.52 0,-0.34 -0.05,-1.25 -0.29,-2.21 -0.27,-1.01 -0.86,-3.07 -3.32,-4.61 -0.29,-0.2 -0.45,-0.34 -1.21,-0.62 l 6.23,-11.16 h -6.02 l -5.47,10.26 h -3.64 v -10.26 h -5.26 v 26.84 z m 1.87,-12.13 c 1.62,0.03 3.41,0.16 4.46,1.68 0.44,0.66 0.61,1.39 0.61,2.31 0,1.45 -0.76,2.63 -2.02,3.25 -1.21,0.47 -2.43,0.47 -4.92,0.47 h -1.49 v -7.71 h 3.36"
         style="fill:#ed1c24;fill-opacity:1;fill-rule:nonzero;stroke:none"
         id="path16" />
    </g>
  </g>
</svg>
