<svg xmlns="http://www.w3.org/2000/svg" width="3000" height="1039" viewBox="0 0 3000 1039" version="1.1"><path d="M 2509 659.492 C 2439.222 667.172, 2402.508 696.727, 2393.947 752.109 C 2392.313 762.682, 2393.208 793.559, 2395.380 801.500 C 2399.384 816.147, 2408.880 830.697, 2421.139 840.965 C 2442.280 858.675, 2472.091 869.277, 2516.784 874.981 C 2563.090 880.891, 2587.039 891.116, 2595.611 908.637 C 2600.450 918.528, 2599.776 933.351, 2593.863 947.097 C 2589.839 956.451, 2579.084 963.860, 2563.197 968.223 C 2552.457 971.172, 2525.324 971.396, 2513.527 968.632 C 2483.193 961.526, 2472.246 949.477, 2464.570 914.750 L 2463.962 912 2423.327 912 L 2382.693 912 2383.357 923.750 C 2384.987 952.582, 2394.755 976.782, 2412.377 995.646 C 2432.743 1017.448, 2457.553 1029.529, 2495.500 1036.123 C 2510.709 1038.765, 2549.446 1039.844, 2565.109 1038.061 C 2621.771 1031.611, 2658.053 1006.464, 2671.299 964.460 C 2678.976 940.116, 2676.233 903.599, 2664.960 880.072 C 2647.213 843.035, 2615.496 826.848, 2530.691 811.545 C 2492.955 804.736, 2483.912 802.058, 2475.113 795.090 C 2464.657 786.809, 2460.931 765.567, 2467.440 751.350 C 2472.275 740.789, 2484.805 731.684, 2501.016 726.952 C 2512.521 723.594, 2536.403 723.051, 2548.256 725.877 C 2559.628 728.589, 2564.081 730.951, 2571.809 738.372 C 2582.082 748.236, 2590.684 762.915, 2594.068 776.357 C 2595.105 780.472, 2595.573 781.079, 2597.387 780.659 C 2598.549 780.390, 2614.125 778.269, 2632 775.944 C 2649.875 773.620, 2664.921 771.338, 2665.436 770.873 C 2667.708 768.821, 2659.752 743.408, 2651.911 727.674 C 2632.534 688.789, 2599.754 664.940, 2557.633 659.082 C 2547.563 657.681, 2523.618 657.883, 2509 659.492 M 2830 659.082 C 2814.203 660.628, 2793.175 664.859, 2780.867 668.969 C 2750.865 678.986, 2731.231 694.639, 2719.592 717.819 C 2701.601 753.649, 2705.100 796.502, 2728.388 825.543 C 2738.307 837.911, 2750.313 846.927, 2768.303 855.515 C 2788.616 865.211, 2810.065 871.097, 2841.457 875.590 C 2885.683 881.920, 2906.630 891.346, 2915.213 908.782 C 2918.173 914.793, 2918.494 916.307, 2918.445 923.979 C 2918.353 938.112, 2913.900 950.369, 2906.495 956.870 C 2901.553 961.209, 2892.238 965.740, 2883.144 968.227 C 2871.712 971.353, 2844.151 971.350, 2831.693 968.222 C 2809.674 962.693, 2800.589 956.073, 2792.443 939.621 C 2789.900 934.486, 2786.965 926.458, 2785.727 921.250 L 2783.527 912 2745.763 912 L 2708 912 2708 922.093 C 2708 933.828, 2710.652 948.249, 2715.003 960.171 C 2731.397 1005.091, 2773.018 1031.983, 2835.604 1038.095 C 2853.376 1039.830, 2889.578 1038.762, 2903.810 1036.083 C 2932.713 1030.642, 2954.497 1020.416, 2970.859 1004.609 C 2983.894 992.017, 2992.378 977.618, 2997.144 960 C 2999.138 952.630, 2999.446 949.108, 2999.465 933.500 C 2999.487 914.186, 2998.421 905.773, 2994.268 892.500 C 2989.426 877.024, 2982.317 865.450, 2970.862 854.394 C 2950.185 834.436, 2921.155 823.604, 2857.095 811.944 C 2826.198 806.320, 2816.335 804.007, 2808.525 800.554 C 2801.341 797.377, 2794.753 791.118, 2791.863 784.727 C 2789.801 780.165, 2789.500 777.974, 2789.500 767.500 C 2789.500 756.114, 2789.649 755.231, 2792.415 750.239 C 2801.730 733.428, 2822.881 724.048, 2851.500 724.039 C 2877.528 724.030, 2891.159 729.857, 2903.602 746.310 C 2909.195 753.705, 2916.519 768.445, 2918.244 775.776 C 2919.389 780.639, 2919.682 781.014, 2921.993 780.566 C 2923.372 780.299, 2939.125 778.187, 2957 775.873 C 2974.875 773.559, 2989.824 771.395, 2990.219 771.063 C 2991.241 770.208, 2987.748 753.972, 2984.505 744.500 C 2969.245 699.937, 2936.547 670.959, 2890.199 660.919 C 2878.950 658.483, 2846.305 657.486, 2830 659.082 M 2186 663.033 C 2132.407 666.148, 2089.137 687.760, 2060.619 725.657 C 2052.246 736.783, 2041.328 758.201, 2036.645 772.689 C 2018.873 827.663, 2024.186 902.275, 2049.470 952.789 C 2070.757 995.319, 2104.939 1021.485, 2151.533 1030.918 C 2184.825 1037.658, 2227.503 1035.067, 2257.992 1024.454 C 2304.035 1008.428, 2333.272 973.543, 2343.994 921.838 C 2345.096 916.524, 2346.110 909.999, 2346.249 907.338 L 2346.500 902.500 2306.351 902.239 L 2266.202 901.977 2264.005 909.239 C 2258.871 926.212, 2249.746 941.291, 2237.824 952.500 C 2224.812 964.734, 2212.892 970.176, 2194.649 972.215 C 2171.129 974.843, 2150.038 967.374, 2134.448 950.897 C 2116.431 931.855, 2106.200 902.700, 2102.901 861 C 2100.193 826.775, 2104.741 796.261, 2115.942 773.500 C 2126.683 751.675, 2143.144 738.130, 2166.500 731.897 C 2177.468 728.970, 2201.363 728.679, 2211 731.356 C 2230.605 736.803, 2244.899 748.947, 2253.575 767.530 C 2256.965 774.790, 2261 788.531, 2261 792.813 C 2261 794.930, 2261.361 795.182, 2263.750 794.734 C 2265.262 794.451, 2282.363 792.268, 2301.750 789.884 C 2342.547 784.866, 2338.354 787.213, 2334.911 771.324 C 2324.252 722.127, 2294.502 685.822, 2252.479 670.730 C 2243.159 667.383, 2228.374 664.251, 2218.500 663.533 C 2202.706 662.385, 2198.319 662.317, 2186 663.033 M 0 700.500 L 0 734 51.500 734 L 103 734 103 882 L 103 1030 143.500 1030 L 184 1030 184 884.509 L 184 739.017 237.750 738.759 L 291.500 738.500 291.763 702.750 L 292.025 667 146.013 667 L 0 667 0 700.500 M 682 846 L 682 1025 717.500 1025 L 753 1025 753 846 L 753 667 717.500 667 L 682 667 682 846 M 555 703 L 555 734 590.500 734 L 626 734 626 703 L 626 672 590.500 672 L 555 672 555 703 M 1194 703 L 1194 734 1229.500 734 L 1265 734 1265 703 L 1265 672 1229.500 672 L 1194 672 1194 703 M 1800.667 672.667 C 1800.300 673.033, 1800 700.092, 1800 732.796 L 1800 792.259 1795.750 788.607 C 1770.904 767.257, 1745.524 758.615, 1717.558 761.983 C 1690.832 765.201, 1669.520 774.793, 1652.224 791.386 C 1631.037 811.712, 1619.496 836.255, 1614.403 871.812 C 1610.260 900.738, 1614.199 943.752, 1623.564 971.856 C 1638.914 1017.916, 1668.896 1039, 1719.043 1039 C 1732.905 1039, 1743.091 1037.633, 1752.500 1034.510 C 1767.990 1029.370, 1785.082 1017.769, 1794.500 1006.003 L 1799.500 999.757 1800 1014.628 L 1800.500 1029.500 1833.750 1029.763 L 1867 1030.027 1867 851.013 L 1867 672 1834.167 672 C 1816.108 672, 1801.033 672.300, 1800.667 672.667 M 1460.500 757.137 C 1443.876 759.237, 1426.842 765.639, 1414.656 774.367 C 1408.593 778.710, 1397.055 790.113, 1393.780 795 C 1392.182 797.385, 1392.102 796.659, 1392.052 779.250 L 1392 761 1356.500 761 L 1321 761 1321 893 L 1321 1025 1356.500 1025 L 1392 1025 1392 941.710 C 1392 850.858, 1391.928 852.112, 1397.745 842.160 C 1404.497 830.609, 1420.290 819.302, 1435 815.487 C 1444.006 813.151, 1458.313 813.841, 1466.500 817.006 C 1474.676 820.166, 1483.750 829.198, 1487.088 837.500 L 1489.500 843.500 1489.775 934.250 L 1490.051 1025 1526.025 1025 L 1562 1025 1561.999 935.250 C 1561.998 843.091, 1561.578 830.594, 1558.002 816.378 C 1555.550 806.633, 1548.577 792.376, 1542.537 784.758 C 1525.726 763.558, 1494.062 752.897, 1460.500 757.137 M 363.500 766.691 C 354.608 767.278, 337.789 770.131, 331.058 772.194 C 311.002 778.342, 293.483 791.919, 282.698 809.674 C 276.357 820.112, 270.402 842, 273.902 842 C 275.379 842, 330.144 845.912, 334.664 846.340 C 338.757 846.728, 338.838 846.673, 339.493 843.117 C 342.063 829.145, 352.698 819.384, 369.686 815.405 C 379.380 813.134, 399.440 813.870, 406.809 816.766 C 415.568 820.209, 418.729 823.307, 423.515 833.139 C 428.217 842.801, 429.754 850.905, 428.543 859.657 L 427.874 864.500 407.187 864.609 C 358.160 864.866, 318.454 872.790, 294.314 887.135 C 282.089 894.399, 269.234 909.697, 263.503 923.799 C 255.455 943.608, 256.578 971.171, 266.167 989.162 C 277.488 1010.403, 298.468 1024.226, 327.500 1029.574 C 340.861 1032.036, 364.006 1031.124, 377.500 1027.606 C 395.389 1022.941, 410.192 1014.570, 424.173 1001.213 L 432 993.735 432 1009.367 L 432 1025 465.539 1025 L 499.079 1025 498.770 933.250 L 498.462 841.500 495.754 831.500 C 485.726 794.465, 458.844 773.334, 414.334 767.499 C 403.944 766.137, 378.109 765.726, 363.500 766.691 M 555 898 L 555 1030 590.500 1030 L 626 1030 626 898 L 626 766 590.500 766 L 555 766 555 898 M 785.390 767.750 C 785.678 768.712, 802.648 828.112, 823.101 899.750 L 860.287 1030 893.496 1030 L 926.704 1030 936.250 994.750 C 941.501 975.362, 952.026 936.428, 959.641 908.229 C 967.256 880.029, 973.579 857.304, 973.693 857.729 C 973.807 858.153, 983.785 895.175, 995.866 940 C 1007.948 984.825, 1018.339 1023.418, 1018.958 1025.763 L 1020.084 1030.025 1055.756 1029.763 L 1091.427 1029.500 1128.180 901 C 1148.395 830.325, 1165.225 771.032, 1165.580 769.238 L 1166.227 765.976 1128.379 766.238 L 1090.531 766.500 1072.016 852.192 C 1061.833 899.323, 1053.233 937.123, 1052.906 936.192 C 1052.578 935.262, 1043.128 896.593, 1031.905 850.261 L 1011.500 766.022 980.500 766.024 L 949.500 766.025 924.023 849.589 C 907.080 905.164, 898.302 932.540, 897.815 931.326 C 897.412 930.322, 889.616 895.750, 880.490 854.500 C 871.365 813.250, 863.210 776.462, 862.369 772.750 L 860.840 766 822.852 766 C 787.141 766, 784.897 766.105, 785.390 767.750 M 1194 898 L 1194 1030 1229.500 1030 L 1265 1030 1265 898 L 1265 766 1229.500 766 L 1194 766 1194 898 M 1731.500 819.051 C 1719.268 820.713, 1710.992 825, 1702.671 833.988 C 1688.956 848.803, 1683.187 871.657, 1684.287 906.824 C 1684.700 920.024, 1685.377 926.646, 1686.959 932.976 C 1692.674 955.839, 1705.569 970.607, 1724.131 975.547 C 1731.362 977.472, 1749.911 977.429, 1757.540 975.470 C 1777.882 970.246, 1791.106 955.573, 1797.203 931.460 C 1799.267 923.299, 1799.470 920.182, 1799.484 896.500 C 1799.498 874.674, 1799.202 869.216, 1797.644 862.500 C 1792.229 839.159, 1779.181 825.017, 1759 820.617 C 1750.257 818.710, 1738.805 818.058, 1731.500 819.051 M 393.500 913.030 C 365.875 914.557, 342.159 923.132, 333.311 934.792 C 325.084 945.635, 326.697 961.264, 337.155 972.040 C 344.046 979.141, 348.385 980.517, 363.500 980.395 C 396.373 980.129, 415.225 970.959, 424.964 950.500 C 429.427 941.125, 430.901 935.569, 431.965 924.119 C 433.161 911.251, 433.935 911.973, 419.133 912.156 C 412.185 912.242, 400.650 912.635, 393.500 913.030" stroke="none" fill="#242c2c" fill-rule="evenodd"/><path d="M 1483 0.607 C 1481.075 0.827, 1475 1.487, 1469.500 2.075 C 1423.748 6.968, 1378.681 22.532, 1344.395 45.280 C 1297.358 76.489, 1261.891 124.330, 1244.067 180.613 C 1239.656 194.540, 1235.771 211, 1236.893 211 C 1237.276 211, 1239.369 208.644, 1241.545 205.764 C 1247.552 197.812, 1267.390 177.620, 1277.500 169.167 C 1302.483 148.278, 1330.796 134.148, 1360.336 127.828 C 1375.194 124.649, 1403.113 124.666, 1417.934 127.862 C 1437.739 132.134, 1455.991 140.813, 1475.500 155.237 C 1488.936 165.171, 1497.434 172.482, 1524 196.960 C 1565.448 235.150, 1578.148 245.652, 1602.500 261.870 C 1644.495 289.838, 1687.817 305.876, 1739.774 312.690 C 1759.409 315.266, 1812.250 315.260, 1829.500 312.681 C 1873.157 306.155, 1908.346 291.907, 1939.500 268.143 C 1948.453 261.314, 1966.297 243.642, 1973.976 234 C 1996.723 205.440, 2013.898 169.510, 2022.459 132.578 C 2025.147 120.982, 2027.271 108.938, 2026.725 108.391 C 2026.519 108.185, 2023.586 111.526, 2020.207 115.815 C 2012.359 125.779, 1993.892 143.777, 1983.220 151.862 C 1965.819 165.046, 1947.540 174.882, 1928.793 181.150 C 1912.145 186.716, 1900.001 188.941, 1882.500 189.633 C 1840.475 191.293, 1810.968 180.259, 1776.267 149.909 C 1770.979 145.284, 1755.241 129.350, 1741.294 114.500 C 1692.307 62.342, 1668.617 42.780, 1633.500 25.489 C 1610.560 14.193, 1586.138 6.738, 1557.804 2.382 C 1547.994 0.874, 1492.265 -0.448, 1483 0.607 M 1220 315.663 C 1194.377 318.174, 1179.279 320.665, 1160.648 325.454 C 1080.202 346.131, 1020.093 398.332, 988.140 475.265 C 981.294 491.749, 971.926 524.259, 973.554 525.887 C 973.824 526.158, 974.815 525.281, 975.754 523.940 C 983.283 513.186, 1002.300 493.778, 1017.500 481.337 C 1033.303 468.402, 1058.053 454.592, 1076.370 448.489 C 1094.907 442.312, 1105.311 440.640, 1125.500 440.595 C 1150.996 440.537, 1163.735 443.360, 1184.159 453.591 C 1203.776 463.418, 1218.606 475.099, 1261.500 514.511 C 1297.876 547.934, 1312.157 559.623, 1336 575.488 C 1379.451 604.402, 1421.676 620.221, 1475 627.563 C 1490.443 629.689, 1536.778 630.612, 1552.511 629.107 C 1601.408 624.428, 1640.693 609.922, 1675.467 583.703 C 1686.361 575.489, 1705.998 555.583, 1714.634 544 C 1739.440 510.725, 1755.925 470.927, 1763.406 426.250 C 1763.705 424.462, 1763.807 423, 1763.631 423 C 1763.456 423, 1759.648 427.435, 1755.169 432.855 C 1715.580 480.766, 1660.902 507.095, 1606 504.685 C 1583.079 503.679, 1566.810 499.584, 1548.841 490.298 C 1530.925 481.040, 1519.184 471.441, 1493 444.648 C 1429.905 380.085, 1419.681 370.631, 1396.500 355.421 C 1362.531 333.131, 1325.405 320.310, 1282.576 316.079 C 1272.724 315.106, 1228.674 314.813, 1220 315.663" stroke="none" fill="#3ab0ae" fill-rule="evenodd"/></svg>